{"title":"Whatever Works *2009* [BluRay] [720p] [ENG, POL, sub. ENG]","uid":5934256,"size":4911799615,"categoryP":"video","categoryS":"hd___movies","magnet":"?xt=urn:btih:5bb04195c02e69b99ec33a7f273e4328e8f46e24&amp;dn=Whatever+Works+%2A2009%2A+%5BBluRay%5D+%5B720p%5D+%5BENG%2C+POL%2C+sub.+ENG%5D&amp;tr=udp%3A%2F%2Ftracker.openbittorrent.com%3A80&amp;tr=udp%3A%2F%2Fopen.demonii.com%3A1337&amp;tr=udp%3A%2F%2Ftracker.coppersurfer.tk%3A6969&amp;tr=udp%3A%2F%2Fexodus.desync.com%3A6969","seeders":1,"leechers":0,"uploader":"albedo040","files":1,"time":1288896878,"description":"Whatever Works *2009* [BluRay] [720p] [ENG, POL, sub. ENG]\n\n\nGeneral information:\nCountry: USA, France \nRelease: 22 April 2009 (Tribeca Film Festival)\nGenre: Comedy, Romance \nDirector: Woody Allen\nScreenplay: Woody Allen\nOriginal Music: Roy B. Yokelson \nCinematography by: Harris Savides\nDuration: 1h 31mn\nLanguage: English, Polish\nSubtitles: English\nRating: 7.4/10 - 13717 votes \n\nCast:\nLarry David  ...  Boris  \nAdam Brooks  ...  Boris' Friend  \nLyle Kanouse  ...  Boris' Friend  \nMichael McKean  ...  Boris' Friend  \nClifford Lee Dickson  ...  Boy on Street  \nYolonda Ross  ...  Boy's Mother  \nCarolyn McCormick  ...  Jessica  \nSamantha Bee  ...  Chess Mother  \nConleth Hill  ...  Brockman  \nMarcia DeBonis  ...  Lady at Chinese Restaurant  \nEvan Rachel Wood  ...  Melody  \nJohn Gallagher Jr.  ...  Perry  \nWilla Cuthrell-Tuttleman  ...  Chess Girl (as Willa Cuthrell Tuttleman)  \nNicole Patrick  ...  Perry's Friend  \nPatricia Clarkson  ...  Marietta  \n\nPlot:\nAttempting to impress his ideologies on religion, relationships, and the randomness (and worthlessness) of existence, lifelong New York resident Boris Yellnikoff rants to anyone who will listen, including the audience. But when he begrudgingly allows naive Mississippi runaway Melodie St. Ann Celestine to live in his apartment...\n\nSpecifications:\nGeneral\nFormat                           : Matroska\nOverall bit rate                 : 7 145 Kbps\n\nVideo\nFormat                           : AVC\nFormat/Info                      : Advanced Video Codec\nFormat profile                   : &lt;a class=&quot;__cf_email__&quot; href=&quot;/cdn-cgi/l/email-protection&quot; data-cfemail=&quot;9fd7f6f8f7dfd3abb1ae&quot;&gt;[email&amp;#160;protected]&lt;/a&gt;&lt;script cf-hash='f9e31' type=&quot;text/javascript&quot;&gt;\n/* &lt;![CDATA[ */!function(){try{var t=&quot;currentScript&quot;in document?document.currentScript:function(){for(var t=document.getElementsByTagName(&quot;script&quot;),e=t.length;e--;)if(t[e].getAttribute(&quot;cf-hash&quot;))return t[e]}();if(t&amp;&amp;t.previousSibling){var e,r,n,i,c=t.previousSibling,a=c.getAttribute(&quot;data-cfemail&quot;);if(a){for(e=&quot;&quot;,r=parseInt(a.substr(0,2),16),n=2;a.length-n;n+=2)i=parseInt(a.substr(n,2),16)^r,e+=String.fromCharCode(i);e=document.createTextNode(e),c.parentNode.replaceChild(e,c)}}}catch(u){}}();/* ]]&gt; */&lt;/script&gt;\nFormat settings, CABAC           : Yes\nFormat settings, ReFrames        : 5 frames\nMuxing mode                      : Container profile=&lt;a class=&quot;__cf_email__&quot; href=&quot;/cdn-cgi/l/email-protection&quot; data-cfemail=&quot;3b6e555055544c557b0f150a&quot;&gt;[email&amp;#160;protected]&lt;/a&gt;&lt;script cf-hash='f9e31' type=&quot;text/javascript&quot;&gt;\n/* &lt;![CDATA[ */!function(){try{var t=&quot;currentScript&quot;in document?document.currentScript:function(){for(var t=document.getElementsByTagName(&quot;script&quot;),e=t.length;e--;)if(t[e].getAttribute(&quot;cf-hash&quot;))return t[e]}();if(t&amp;&amp;t.previousSibling){var e,r,n,i,c=t.previousSibling,a=c.getAttribute(&quot;data-cfemail&quot;);if(a){for(e=&quot;&quot;,r=parseInt(a.substr(0,2),16),n=2;a.length-n;n+=2)i=parseInt(a.substr(n,2),16)^r,e+=String.fromCharCode(i);e=document.createTextNode(e),c.parentNode.replaceChild(e,c)}}}catch(u){}}();/* ]]&gt; */&lt;/script&gt;\nCodec ID                         : V_MPEG4/ISO/AVC\nBit rate                         : 5 319 Kbps\nWidth                            : 1 280 pixels\nHeight                           : 720 pixels\nDisplay aspect ratio             : 16:9\n\nAudio 1\nFormat                           : DTS\nFormat/Info                      : Digital Theater Systems\nCodec ID                         : A_DTS\nBit rate mode                    : Constant\nBit rate                         : 1 510 Kbps\nChannel(s)                       : 6 channels\nChannel positions                : Front: L C R, Side: L R, LFE\nSampling rate                    : 48.0 KHz\nBit depth                        : 24 bits\nStream size                      : 990 MiB (21%)\nTitle                            : English\n\nAudio 2\nFormat                           : AC-3\nFormat/Info                      : Audio Coding 3\nMode extension                   : CM (complete main)\nCodec ID                         : A_AC3\nBit rate mode                    : Constant\nBit rate                         : 320 Kbps\nChannel(s)                       : 6 channels\nChannel positions                : Front: L C R, Side: L R, LFE\nSampling rate                    : 48.0 KHz\nStream size                      : 210 MiB (4%)\nTitle                            : Polish\nLanguage                         : Polish\n\nText\nFormat                           : UTF-8\nCodec ID                         : S_TEXT/UTF8\nCodec ID/Info                    : UTF-8 Plain Text\nTitle                            : English\n","torrent":{"xt":"urn:btih:5bb04195c02e69b99ec33a7f273e4328e8f46e24","amp;dn":"Whatever+Works+%2A2009%2A+%5BBluRay%5D+%5B720p%5D+%5BENG%2C+POL%2C+sub.+ENG%5D","amp;tr":["udp%3A%2F%2Ftracker.openbittorrent.com%3A80","udp%3A%2F%2Fopen.demonii.com%3A1337","udp%3A%2F%2Ftracker.coppersurfer.tk%3A6969","udp%3A%2F%2Fexodus.desync.com%3A6969"],"infoHash":"5bb04195c02e69b99ec33a7f273e4328e8f46e24","infoHashBuffer":{"type":"Buffer","data":[91,176,65,149,192,46,105,185,158,195,58,127,39,62,67,40,232,244,110,36]},"announce":[],"urlList":[]}}